<?xml version="1.0" standalone="no"?><!DOCTYPE svg PUBLIC "-//W3C//DTD SVG 1.1//EN" "http://www.w3.org/Graphics/SVG/1.1/DTD/svg11.dtd"><svg t="1636429411546" class="icon" viewBox="0 0 1024 1024" version="1.1" xmlns="http://www.w3.org/2000/svg" p-id="1018" xmlns:xlink="http://www.w3.org/1999/xlink" width="200" height="200"><defs><style type="text/css"></style></defs><path d="M853.76 490.6496h-298.6496a42.8032 42.8032 0 0 1-42.7008-42.6496V149.3504c0-23.5008 19.2-42.7008 42.7008-42.7008 187.6992 0 341.2992 153.6 341.2992 341.3504a42.8032 42.8032 0 0 1-42.6496 42.6496z m19.2 42.7008h-234.6496c-38.4 0-57.6 46.8992-29.9008 72.4992l166.4 166.4c19.2 19.2 49.1008 17.1008 64-4.2496a387.84 387.84 0 0 0 76.8-185.6c2.1504-25.6-17.0496-49.0496-42.6496-49.0496z m-403.2-38.4c0 10.6496 4.2496 21.2992 10.6496 29.8496l226.1504 247.4496c17.0496 19.2 12.8 49.1008-8.5504 64a379.5968 379.5968 0 0 1-270.8992 55.5008c-166.4-25.6-296.5504-164.3008-317.9008-330.7008a388.5568 388.5568 0 0 1 309.3504-426.6496c25.6-4.2496 51.2 14.9504 51.2 42.6496v317.9008z" p-id="1019"></path></svg>